<?xml version="1.0" standalone="no"?>
<!DOCTYPE svg PUBLIC "-//W3C//DTD SVG 20010904//EN"
 "http://www.w3.org/TR/2001/REC-SVG-20010904/DTD/svg10.dtd">
<svg version="1.0" xmlns="http://www.w3.org/2000/svg"
 width="512.000000pt" height="512.000000pt" viewBox="0 0 512.000000 512.000000"
 preserveAspectRatio="xMidYMid meet">
<metadata>
Created by potrace 1.11, written by Peter Selinger 2001-2013
</metadata>
<g transform="translate(0.000000,512.000000) scale(0.100000,-0.100000)"
fill="#000000" stroke="none">
<path d="M1885 5111 c-29 -13 -72 -61 -85 -96 -15 -38 -15 -138 -1 -190 17
-63 72 -146 118 -179 156 -109 299 49 235 261 -25 82 -66 142 -122 179 -42 28
-111 40 -145 25z"/>
<path d="M1398 4913 c-58 -61 -57 -174 2 -266 30 -48 90 -87 133 -87 33 0 76
36 93 76 29 68 11 172 -42 241 -52 68 -140 85 -186 36z"/>
<path d="M1109 4805 c-68 -37 -79 -180 -23 -273 37 -58 85 -92 133 -92 72 0
111 53 111 150 0 94 -36 164 -108 207 -42 26 -76 28 -113 8z"/>
<path d="M776 4619 c-14 -17 -29 -42 -32 -56 -11 -42 4 -123 31 -170 65 -110
186 -110 216 0 41 154 -127 331 -215 226z"/>
<path d="M1934 4519 c-77 -13 -188 -55 -299 -114 -128 -68 -250 -111 -356
-125 -223 -29 -321 -56 -450 -120 -153 -75 -252 -174 -300 -298 -17 -44 -23
-79 -23 -152 l-1 -95 69 -170 c85 -211 210 -483 332 -725 133 -266 172 -396
159 -542 -12 -143 34 -370 106 -514 55 -113 131 -194 222 -239 166 -82 388
-85 530 -8 105 58 213 223 224 344 14 151 -108 342 -318 496 -70 51 -143 133
-218 243 -198 289 -253 575 -146 766 20 35 69 108 109 161 147 198 288 326
476 436 123 72 243 184 279 261 51 110 37 221 -38 296 -91 91 -209 124 -357
99z"/>
<path d="M517 4449 c-25 -15 -47 -69 -47 -117 0 -53 44 -137 84 -162 44 -26
79 -25 112 4 24 20 28 32 32 87 3 53 -1 72 -20 109 -40 74 -111 108 -161 79z"/>
<path d="M3129 3806 c-168 -59 -247 -340 -129 -458 33 -33 44 -38 84 -38 60 0
94 18 145 76 55 63 82 139 82 231 0 58 -5 82 -23 115 -39 71 -95 96 -159 74z"/>
<path d="M3582 3623 c-72 -35 -116 -128 -110 -233 3 -60 7 -73 33 -100 88 -92
235 34 235 202 0 56 -18 97 -56 127 -32 25 -58 26 -102 4z"/>
<path d="M3883 3494 c-86 -43 -141 -210 -97 -297 73 -146 254 -30 255 162 1
121 -68 179 -158 135z"/>
<path d="M4199 3323 c-33 -20 -76 -86 -90 -137 -24 -90 22 -186 89 -186 67 0
139 88 149 184 13 113 -67 189 -148 139z"/>
<path d="M2952 3192 c-140 -50 -217 -171 -192 -302 24 -126 110 -225 301 -344
138 -86 265 -193 360 -302 87 -102 182 -237 226 -322 35 -68 37 -79 41 -185 3
-90 0 -129 -17 -202 -52 -217 -233 -505 -397 -630 -211 -162 -332 -362 -309
-513 11 -72 79 -205 135 -262 115 -118 305 -155 515 -99 114 31 229 128 293
247 77 145 130 386 118 541 -13 165 22 283 178 604 122 252 250 541 327 742
51 132 54 145 52 225 -5 305 -274 511 -744 569 -114 15 -235 57 -374 131 -163
87 -238 111 -360 116 -81 4 -110 1 -153 -14z"/>
<path d="M4506 3139 c-52 -14 -96 -73 -110 -150 -14 -79 26 -149 85 -149 48 0
113 69 127 135 17 80 -8 155 -56 167 -9 3 -30 1 -46 -3z"/>
</g>
</svg>
